<svg enable-background="new 0 0 563.558 240.632" height="240.632px" version="1.1" viewBox="0 0 563.558 240.632" width="563.558px" x="0px" xml:space="preserve" xmlns="http://www.w3.org/2000/svg" xmlns:xlink="http://www.w3.org/1999/xlink" y="0px"> <g> <path d="M530.945,58.718V35.782c0.04-6.075,4.375-9.599,13.002-10.571h14.256V0h-24.278        c-4.657,0.729-8.526,1.883-11.604,3.463c-6.44,3.363-11.32,7.758-14.642,13.185c-2.917,4.82-4.739,10.288-5.104,16.404        c-0.039,0.203,0,25.666,0,25.666h-25.909V5.051h-28.006l0.201,80.748c-1.336,3.972-5.369,6.34-12.109,7.1h-12.584v25.688h22.265        c4.516-0.707,8.267-1.826,11.253-3.358c6.245-3.262,10.978-7.523,14.199-12.786c2.828-4.674,4.419-9.977,4.773-15.908        c0.001-0.003,0.001-0.011,0.001-0.014h86.901V58.718H530.945z" fill="#08b2e3"> </path> <path d="M397.703,160.995c0,5.186-0.346,8.58-1.038,10.178c-0.778,2.767-3.889,4.172-9.335,4.215h-13.988        c0,0,0.02-15.931,0-16.534v-0.12h-0.003c-0.189-5.244-1.144-10.045-2.878-14.396c-1.945-5.058-4.885-9.576-8.818-13.55        c-3.76-3.849-8.104-6.766-13.031-8.753c-3.469-1.354-7.057-2.208-10.747-2.64h-9.673c-9.405,1.02-17.342,4.807-23.778,11.424        c-7.823,8.04-11.735,17.96-11.735,29.76c0,6.008,0.973,11.454,2.918,16.337c1.945,5.058,4.885,9.576,8.817,13.55        c3.761,3.849,8.104,6.766,13.031,8.753c3.469,1.354,7.057,2.208,10.747,2.64h9.673c2.754-0.299,5.367-0.864,7.868-1.639        l0.134,5.752c-0.039,5.891-4.242,9.308-12.609,10.251h-13.863v24.41h23.543c4.516-0.707,8.268-1.826,11.253-3.358        c6.245-3.261,10.978-7.523,14.199-12.786c2.828-4.674,4.419-9.977,4.773-15.908c0.038-0.197,0.176-6.722,0.176-6.722h17.482        c-0.124,0.117-0.253,0.22-0.374,0.342c-1.415,1.413-2.512,2.998-3.29,4.754c-0.83,1.902-1.244,3.973-1.244,6.216        c0,4.29,1.511,7.923,4.534,10.897c2.974,3.022,6.607,4.535,10.898,4.535c4.29,0,7.946-1.512,10.97-4.535        c3.022-3.024,4.534-6.655,4.534-10.897c0-4.291-1.512-7.947-4.534-10.97c-1.025-1.009-2.121-1.833-3.276-2.506        c0.735-0.309,1.461-0.638,2.164-1.013c3.933-2.031,7.111-4.949,9.532-8.753c0.561-0.864,1.123-1.966,1.684-3.306        c0.475-1.123,0.865-2.355,1.167-3.695c0.26-1.339,0.475-2.853,0.648-4.539c0.131-1.209,0.195-3.133,0.195-5.77v-44.218h-26.73        V160.995z M343.72,171.319c-2.956,2.955-6.533,4.434-10.727,4.434c-4.197,0-7.749-1.479-10.657-4.434        c-2.956-2.909-4.433-6.461-4.433-10.656c0-4.195,1.476-7.771,4.433-10.728s6.508-4.434,10.657-4.434        c4.194,0,7.771,1.477,10.727,4.434c2.956,2.956,4.435,6.532,4.435,10.728C348.155,164.811,346.676,168.362,343.72,171.319z" fill="#08b2e3"> </path> <path d="M49.289,94.436c-4.242,0-7.875,1.511-10.898,4.535c-1.415,1.413-2.512,2.998-3.29,4.754        c-0.83,1.901-1.244,3.973-1.244,6.216c0,4.29,1.511,7.923,4.534,10.897c2.974,3.023,6.607,4.535,10.898,4.535        c4.29,0,7.946-1.512,10.97-4.535c3.022-3.024,4.534-6.655,4.534-10.897c0-4.291-1.512-7.947-4.534-10.97        C57.186,95.947,53.529,94.436,49.289,94.436z" fill="#08b2e3"> </path> <path d="M69.326,98.971c-1.415,1.413-2.512,2.998-3.29,4.754c-0.83,1.901-1.244,3.973-1.244,6.216        c0,4.29,1.511,7.923,4.534,10.897c2.974,3.023,6.607,4.535,10.898,4.535c4.29,0,7.946-1.512,10.969-4.535        c3.022-3.024,4.534-6.655,4.534-10.897c0-4.291-1.512-7.947-4.534-10.97c-3.072-3.024-6.728-4.535-10.969-4.535        C75.981,94.436,72.349,95.947,69.326,98.971z" fill="#08b2e3"> </path> <path d="M304.521,110.484c3.022-3.024,4.534-6.655,4.534-10.897c0-4.291-1.512-7.947-4.534-10.97        c-0.962-0.947-1.989-1.729-3.067-2.379c4.022-0.81,7.458-1.935,10.289-3.387c7.202-3.759,12.66-8.674,16.375-14.745        c3.307-5.39,5.14-12.784,5.504-19.625c0.044-0.226,0.068-1.087,0.068-2.582v-3.397c6.795,0.045,10.735,4.892,11.822,14.541v29.477        h47.179c-0.898,0.593-1.755,1.286-2.565,2.096c-1.415,1.413-2.512,2.998-3.29,4.754c-0.83,1.901-1.244,3.973-1.244,6.216        c0,4.29,1.511,7.923,4.534,10.897c2.974,3.023,6.607,4.535,10.898,4.535c4.29,0,7.946-1.512,10.97-4.535        c3.022-3.024,4.534-6.655,4.534-10.897c0-4.291-1.512-7.947-4.534-10.97c-1.219-1.2-2.535-2.152-3.939-2.876        c2.439-0.554,4.742-1.4,6.901-2.55c4.121-2.129,7.451-5.187,9.988-9.173c0.589-0.906,1.178-2.061,1.767-3.465        c0.498-1.177,0.906-2.469,1.224-3.874c0.272-1.403,0.498-2.99,0.679-4.756c0.136-1.268,0.204-3.284,0.204-6.047V9.535h-28.076        v34.098c0,5.436-0.363,8.993-1.086,10.668c-0.815,2.9-4.078,4.372-9.785,4.417H373.86V45.683        c-0.815-5.208-2.106-9.535-3.872-12.978c-3.761-7.202-8.676-12.66-14.746-16.375c-5.391-3.262-11.506-5.097-18.346-5.504        c-0.227-0.044-1.086-0.068-2.582-0.068h-2.65v-0.135h-26.456v32.263c0,1.268-0.024,0.715-0.068,0.896        c-0.046,0.045-0.068,1.46-0.068,1.686c-0.951,8.789-8.697,13.182-23.239,13.182h-5.614c-14.496,0-22.219-4.393-23.171-13.182        l-0.068-40.417h-28.55v42.128c0,1.495,0.022,2.356,0.068,2.582c0.362,6.841,2.197,12.956,5.503,18.346        c3.713,6.071,9.173,10.986,16.376,14.745c2.49,1.278,5.449,2.303,8.865,3.084c-1.253,0.698-2.43,1.588-3.524,2.682        c-1.415,1.413-2.512,2.998-3.29,4.754c-0.83,1.901-1.244,3.973-1.244,6.216c0,4.29,1.511,7.923,4.534,10.897        c2.974,3.023,6.607,4.535,10.898,4.535c4.29,0,7.946-1.512,10.97-4.535c3.022-3.024,4.534-6.655,4.534-10.897        c0-4.291-1.512-7.947-4.534-10.97c-0.73-0.718-1.495-1.345-2.29-1.892h13.618c-0.787,0.548-1.542,1.174-2.26,1.892        c-1.415,1.413-2.512,2.998-3.29,4.754c-0.83,1.901-1.244,3.973-1.244,6.216c0,4.29,1.511,7.923,4.534,10.897        c2.974,3.023,6.606,4.535,10.898,4.535C297.842,115.019,301.498,113.506,304.521,110.484z" fill="#08b2e3"> </path> <path d="M252.385,160.995c0,5.186-0.346,8.58-1.038,10.178c-0.777,2.767-3.889,4.172-9.335,4.215h-11.767        c0.021-0.822,0.034-46.987,0.034-46.987H203.55v32.594c0,5.186-0.346,8.58-1.038,10.178c-0.777,2.767-3.889,4.172-9.334,4.215        h-11.766c0.021-0.822,0.034-1.723,0.034-2.77v-44.218h-26.731v32.594c0,5.186-0.346,8.58-1.038,10.178        c-0.777,2.767-3.889,4.172-9.335,4.215H127.76h-0.602v-49.646h-26.729v35.252c0,5.186-0.347,8.58-1.038,10.178        c-0.821,2.767-3.955,4.172-9.401,4.215H37.103c-5.446-0.043-8.557-1.448-9.337-4.215c-0.692-1.599-1.036-4.992-1.036-10.178        v-32.594H0v44.218c0,2.636,0.065,4.561,0.194,5.77c0.173,1.729,0.411,3.242,0.714,4.539c0.259,1.34,0.625,2.572,1.101,3.695        c0.562,1.341,1.123,2.442,1.686,3.306c2.422,3.804,5.598,6.722,9.53,8.753c3.976,2.118,8.45,3.177,13.421,3.177h128.151        c4.969,0,9.443-1.059,13.42-3.177c3.339-1.724,6.128-4.095,8.378-7.098v10.275h27.038c4.969,0,9.443-1.059,13.419-3.177        c3.339-1.724,6.128-4.095,8.378-7.098v10.275h27.038c4.969,0,9.443-1.059,13.42-3.177c3.932-2.031,7.111-4.949,9.532-8.753        c0.561-0.864,1.123-1.966,1.684-3.306c0.475-1.123,0.865-2.355,1.167-3.695c0.26-1.339,0.475-2.853,0.648-4.539        c0.131-1.209,0.195-3.133,0.195-5.77v-44.218h-26.731V160.995z" fill="#08b2e3"> </path> </g> </svg>